<?xml version="1.0" standalone="no"?><!DOCTYPE svg PUBLIC "-//W3C//DTD SVG 1.1//EN" "http://www.w3.org/Graphics/SVG/1.1/DTD/svg11.dtd"><svg t="1604461319542" class="icon" viewBox="0 0 1024 1024" version="1.1" xmlns="http://www.w3.org/2000/svg" p-id="24473" xmlns:xlink="http://www.w3.org/1999/xlink" width="200" height="200"><defs><style type="text/css"></style></defs><path d="M512 128a384 384 0 0 0-384 384H0l170.666667 170.666667 170.666666-170.666667H213.333333a298.666667 298.666667 0 0 1 298.666667-298.666667 298.666667 298.666667 0 0 1 298.666667 298.666667 298.666667 298.666667 0 0 1-298.666667 298.666667c-64 0-124.16-21.333333-173.226667-55.466667L277.333333 816.64A388.906667 388.906667 0 0 0 512 896a384 384 0 0 0 384-384 384 384 0 0 0-384-384m85.333333 384a85.333333 85.333333 0 0 0-85.333333-85.333333 85.333333 85.333333 0 0 0-85.333333 85.333333 85.333333 85.333333 0 0 0 85.333333 85.333333 85.333333 85.333333 0 0 0 85.333333-85.333333z" fill="#ffffff" p-id="24474"></path></svg>