<svg t="1600620276133" class="icon" viewBox="0 0 1024 1024" version="1.1" xmlns="http://www.w3.org/2000/svg" p-id="8892" width="200" height="200"><path d="M512 853.333333a341.333333 341.333333 0 0 1-341.333333-341.333333 341.333333 341.333333 0 0 1 341.333333-341.333333 341.333333 341.333333 0 0 1 341.333333 341.333333 341.333333 341.333333 0 0 1-341.333333 341.333333m0-768A426.666667 426.666667 0 0 0 85.333333 512a426.666667 426.666667 0 0 0 426.666667 426.666667 426.666667 426.666667 0 0 0 426.666667-426.666667A426.666667 426.666667 0 0 0 512 85.333333m0 213.333334a213.333333 213.333333 0 0 0-213.333333 213.333333 213.333333 213.333333 0 0 0 213.333333 213.333333 213.333333 213.333333 0 0 0 213.333333-213.333333 213.333333 213.333333 0 0 0-213.333333-213.333333z" fill="" p-id="8893"></path></svg>